# xmcd
# 
# Track frame offsets:
#     150
#     14177
#     27200
#     41002
#     61450
#     78795
#     97155
#     113492
#     128457
#     140427
#     156032
#     169365
# 
# Disc length: 2426
# 
# Revision: 0
# Processed by: cddbd v1.5.2PL0 Copyright (c) Steve Scherf et al.
# Submitted via: fre:ac v1.0.31
# 
DISCID=9909780c
DTITLE=Fabio Concato - I Successi Di Fabio Concato
DYEAR=1990
DGENRE=Pop
TTITLE0=A Dean Martin
TTITLE1=Breve Sogno
TTITLE2=P... Come
TTITLE3=Vito
TTITLE4=Festa Nera
TTITLE5=Mi Fai Compagnia
TTITLE6=Axen
TTITLE7=Misto Di Poesia
TTITLE8=Poterti Avere Qui
TTITLE9=Pussy
TTITLE10=Devi Ridere
TTITLE11=Il Barbone
EXTD=\n\n\n
EXTT0=
EXTT1=
EXTT2=
EXTT3=
EXTT4=
EXTT5=
EXTT6=
EXTT7=
EXTT8=
EXTT9=
EXTT10=
EXTT11=
PLAYORDER=
